<svg xmlns="http://www.w3.org/2000/svg" viewBox="0 0 445.66 391.65"><defs><style>.cls-1{isolation:isolate;}.cls-2{fill:#dee1e8;}.cls-3{fill:#0072e3;}.cls-4{fill:#0053af;}.cls-5{fill:#0096ff;}.cls-14,.cls-6{fill:#fff9ff;}.cls-7,.cls-8{fill:#b6beca;}.cls-8{opacity:0.8;mix-blend-mode:multiply;}.cls-9{fill:#a5adb8;}.cls-10{font-size:48px;font-family:Montserrat-Black, Montserrat;font-weight:800;}.cls-10,.cls-16{fill:#2a3541;}.cls-11{letter-spacing:-0.01em;}.cls-12{letter-spacing:-0.02em;}.cls-13{fill:#ff9804;}.cls-14{opacity:0.2;}.cls-15{fill:#021019;}.cls-17{fill:#e72421;}.cls-18{fill:#ffb181;}.cls-19{fill:#ff502a;}.cls-20{fill:#fa8465;}.cls-21{fill:#fa664d;}.cls-22{fill:#445260;}.cls-23{fill:#ededf3;}.cls-24{opacity:0.5;}</style></defs><title>Asset 1</title><g class="cls-1"><g id="Layer_2" data-name="Layer 2"><g id="OBJECTS"><ellipse class="cls-2" cx="205.05" cy="356.77" rx="205.05" ry="14.75"/><path class="cls-2" d="M15.73,356s-25-24.28-1-62.42C32.27,265.63,53.84,266.62,45,229.15S14.71,165.41,26.69,122.64C38,82.2,95.67,45,151.23,78.46s129.33-7.78,184.31,4.46,87,82.22,61.15,152.5S377.08,338,389.41,351.78Z"/><path class="cls-2" d="M18.45,229.87c8,.79,14.62-6.19,13.92-14.18-.95-10.72-4.43-26.82-16.69-29.09-18.63-3.45-13.5,26.4-5.73,38A11.26,11.26,0,0,0,18.45,229.87Z"/><path class="cls-2" d="M263.4,69.24A11,11,0,0,0,253,55.94c-9.16-.38-23.13.78-26.39,10.89-5,15.34,20.79,14.3,31.42,9A9.6,9.6,0,0,0,263.4,69.24Z"/><path class="cls-2" d="M415.25,263.29a11,11,0,0,0,16.1-5.18c3.53-8.46,7.27-22-1.08-28.53-12.67-10-20.61,14.55-19.34,26.36A9.56,9.56,0,0,0,415.25,263.29Z"/><path class="cls-2" d="M423.92,175.71a6.78,6.78,0,0,0,8.87-5.42c.89-5.56,1.18-14.16-4.76-16.88-9-4.13-10.21,11.67-7.75,18.53A5.89,5.89,0,0,0,423.92,175.71Z"/><path class="cls-2" d="M166.51,71.48A6.78,6.78,0,0,0,166,61.1c-4.47-3.42-11.9-7.76-17.11-3.84-7.91,6,5.41,14.54,12.62,15.63A5.9,5.9,0,0,0,166.51,71.48Z"/><path class="cls-3" d="M146.48,105.08l1.72,4.37,3-2.73L136.88,70.35a49,49,0,0,1,5.56-14.46c6.15-11,10.76-23.75,2.77-22.8C138.28,33.92,133.5,48.65,134,63L128.41,48.9c-1-4.65-2.38-11.28-2-18.77.86-17.36-1.52-33.95-9.87-29.35s-3.72,33.08,9,51.31l2.86,7.24C119.36,45.88,102.18,35,95.65,39.82s5.61,11,17.6,14.76c9.12,2.9,14.43,6.89,16.92,9.18L143.67,98C129.25,76.7,102.11,59.59,91.78,67.18s8.9,17.37,27.92,23.41C134.08,95.16,142.49,101.44,146.48,105.08Z"/><path class="cls-3" d="M361.78,134.42l-2.59,3.92-2.39-3.29,21.55-32.63a49.64,49.64,0,0,0-2.46-15.3c-3.76-12-5.64-25.45,2-22.88,6.61,2.24,8.25,17.65,4.84,31.56l8.34-12.62c1.91-4.35,4.65-10.55,5.84-18,2.73-17.17,8.49-32.91,15.71-26.69s-3.18,33.14-19.43,48.35l-4.29,6.5C400.54,82.1,419.59,75,425,81.06s-7.75,9.55-20.27,10.81c-9.53.95-15.54,3.76-18.45,5.49L366,128c18.49-17.82,48.58-29,57.12-19.41s-12.3,15.17-32.16,17.15C376,127.28,366.44,131.68,361.78,134.42Z"/><path class="cls-3" d="M88.34,164.34a9.94,9.94,0,0,1,3.41,7.47h0a14.61,14.61,0,0,1-2.47,8.12,14.9,14.9,0,0,1-1.86,2.26c-.29.28-.58.55-.89.81a14.75,14.75,0,0,1-3.82,2.31,26.86,26.86,0,0,1-16.37,1.39,11.61,11.61,0,0,1-5.26-2.35c-5.5-5.28-7.85-16.06-15.93-14.45s-19.33.8-21.45-12S1.19,135.59,1.19,135.59s16.17-4.59,28.9,6.66,14.46,6.92,26.14,4.32,18.06-5.49,27.43,11.9A21,21,0,0,0,88.34,164.34Z"/><path class="cls-4" d="M87.42,182.19c-.29.28-.58.55-.89.81-6.89-3.46-12.66-8.62-15.43-13.82-4-7.43-12.29-10.22-27-9.07-9.44.74-16-8-16.24-8.34A.55.55,0,0,1,28,151a.56.56,0,0,1,.78.12c.06.09,6.44,8.57,15.26,7.88,15.19-1.19,23.84,1.79,28.05,9.66,2.64,4.94,8.39,10.07,15,13.38Z"/><path class="cls-5" d="M92.87,176l27.3-7.38v-.09a36.61,36.61,0,0,0-1-8.72c-2.26-9.64-8.59-33.67-16.43-38.14C92.92,116,76.55,117.22,75.45,105s-7-27.93-26.13-25.56S8,56.73,8,56.73s.27,25,21.68,38.45,16,17.72,17.18,35.48-.22,28.08,28.54,34.12A29.11,29.11,0,0,1,92.87,176Z"/><path class="cls-3" d="M59.4,108C64.1,130.21,72,141.3,85,144c8.16,1.69,17.91,7.74,25.42,15.79a62.42,62.42,0,0,1,7.29,9.5l1.68-.46a64.28,64.28,0,0,0-7.75-10.18c-7.86-8.41-17.69-14.5-26.31-16.28-12.26-2.53-19.76-13.22-24.3-34.67C58.11,93.88,42.94,88.24,42.3,88a.83.83,0,1,0-.57,1.56C41.88,89.63,56.68,95.15,59.4,108Z"/><path class="cls-3" d="M424.71,288.94c-5.55,12.31-18.31,10.18-19.44,20.64s-8.75,17.47-17.49,14.35-15-5.92-20.51,3.89S348,341,343.91,332.16c-1-2.21-2.11-4.61-3.18-7-.29-.64-.59-1.28-.87-1.91-.07-.14-.14-.29-.2-.43a20.38,20.38,0,0,1,8-26c3.62-2.13,7.73-3,12-1.15C373,301.66,369.9,287,379,282.2c10.46-5.53,17.61,3.3,24.93-1.63C414.1,273.73,430.26,276.62,424.71,288.94Z"/><path class="cls-4" d="M407.37,292.24l-66.64,33c-.29-.64-.59-1.28-.87-1.91l66.58-32.93a1.06,1.06,0,0,1,1.41.48A1,1,0,0,1,407.37,292.24Z"/><path class="cls-5" d="M412.49,219.08c1.19,16.93-14.2,22.17-9.23,34.42s.73,24.54-10.8,26.29-20.12,2.38-20.37,16.51S358.61,322.42,348.82,315l-7.67-5.8-2.1-1.6-.48-.36a25.61,25.61,0,0,1-6.63-33.56c2.74-4.51,6.74-8,12.59-8.41,18.33-1.34,6.15-15.71,13.34-26.43,8.29-12.35,21.44-6.84,26.62-16.65C391.68,208.57,411.29,202.15,412.49,219.08Z"/><path class="cls-3" d="M395.27,233.06l-54.12,76.16-2.1-1.6,54.07-76.08a1.32,1.32,0,1,1,2.15,1.52Z"/><path class="cls-3" d="M342.2,213.76c18.47-11.47,37.08-24.55,48.39-34.66,14.77-13.21,23.12-25.09,24.83-35.3a1.24,1.24,0,0,0-2.45-.41c-3,17.86-28.32,41.71-73.29,69Z"/><path class="cls-5" d="M402.77,166.23s6.08,8.43,20.48-2.83C423.25,163.4,410.29,153.13,402.77,166.23Z"/><path class="cls-5" d="M395.65,172.42s8.75-5.6-1.69-20.61C394,151.81,383,164.18,395.65,172.42Z"/><path class="cls-5" d="M411.82,151s10.12-2.36,5.28-20C417.1,131,402.63,139,411.82,151Z"/><path class="cls-5" d="M381.69,185.32s2.87,10,20.24,4.26C401.93,189.58,393.2,175.53,381.69,185.32Z"/><path class="cls-5" d="M373.48,190.53s9.59-4,1.9-20.59C375.38,169.94,362.43,180.22,373.48,190.53Z"/><path class="cls-5" d="M362.94,198.77s2.68,10,20.15,4.65C383.09,203.42,374.63,189.21,362.94,198.77Z"/><path class="cls-3" d="M104.55,244.75c-20.63-6.85-41.78-15.23-55.13-22.42-17.45-9.4-28.34-19-32.38-28.54a1.24,1.24,0,0,1,2.29-1c7.06,16.67,37.25,34,87.36,50Z"/><path class="cls-5" d="M34.57,212.65s-3.95,9.61-20.58,2C14,214.67,24.2,201.66,34.57,212.65Z"/><path class="cls-5" d="M42.94,217s-9.82-3.4-3.16-20.43C39.78,196.58,53.33,206.05,42.94,217Z"/><path class="cls-5" d="M22.22,200s-10.4.07-9.8-18.21C12.42,181.75,28.36,186.16,22.22,200Z"/><path class="cls-5" d="M59.51,226.3s-.46,10.38-18.68,8.86C40.83,235.16,46,219.47,59.51,226.3Z"/><path class="cls-5" d="M68.72,229.45s-10.26-1.66-6.65-19.58C62.07,209.87,77.05,216.85,68.72,229.45Z"/><path class="cls-5" d="M80.89,235s-.27,10.39-18.51,9.22C62.38,244.23,67.29,228.44,80.89,235Z"/><path class="cls-6" d="M357,356.45H80.26V96.34H343.93V344.23l0,0A13.1,13.1,0,0,0,357,356.45Z"/><path class="cls-7" d="M370.13,96.34v247a13.09,13.09,0,0,1-17.4,12.37,12.75,12.75,0,0,1-4.57-2.74,13,13,0,0,1-4.23-9.63v-247Z"/><path class="cls-8" d="M365.48,96.34V349.6a6.45,6.45,0,0,1-4.25,6.11h-.05a.13.13,0,0,1,0,.06,13.08,13.08,0,0,1-8.44-.06,12.7,12.7,0,0,1-2.58-1.22c.41-3.67,2.23-8.59,2.23-11.15v-247Z"/><path class="cls-7" d="M361.53,96.34v247a13.09,13.09,0,0,1-8.8,12.37,12.88,12.88,0,0,1-4.57-2.74,13,13,0,0,1-4.23-9.63v-247Z"/><path class="cls-8" d="M357,96.34V349.6a6.44,6.44,0,0,1-4.25,6.11h0a12.88,12.88,0,0,1-4.57-2.74,13,13,0,0,1-4.23-9.63v-247Z"/><path class="cls-7" d="M352.38,96.34v247a13,13,0,0,1-4.22,9.63c-.21-.19-.42-.39-.61-.6a13,13,0,0,1-3.62-9v-247Z"/><path class="cls-8" d="M348.16,96.34V349.6a6.72,6.72,0,0,1-.61,2.78,13,13,0,0,1-3.62-9v-247Z"/><path class="cls-9" d="M93.17,180h0a2.81,2.81,0,0,0,2.8,2.8H219.1a2.8,2.8,0,0,0,2.8-2.8h0a2.8,2.8,0,0,0-2.8-2.8H96A2.8,2.8,0,0,0,93.17,180Z"/><path class="cls-9" d="M93.17,192.08h0a2.8,2.8,0,0,0,2.8,2.8H219.1a2.8,2.8,0,0,0,2.8-2.8h0a2.8,2.8,0,0,0-2.8-2.8H96A2.8,2.8,0,0,0,93.17,192.08Z"/><path class="cls-9" d="M93.17,204.21h0A2.8,2.8,0,0,0,96,207H219.1a2.8,2.8,0,0,0,2.8-2.8h0a2.8,2.8,0,0,0-2.8-2.8H96A2.81,2.81,0,0,0,93.17,204.21Z"/><path class="cls-9" d="M326.81,259.58H235.52a2.86,2.86,0,0,0-2.89,2.75,2.8,2.8,0,0,0,2.8,2.85h91.38a2.8,2.8,0,0,0,2.8-2.8h0A2.8,2.8,0,0,0,326.81,259.58Z"/><path class="cls-9" d="M326.81,271.71H235.52a2.86,2.86,0,0,0-2.89,2.75,2.8,2.8,0,0,0,2.8,2.85h91.38a2.8,2.8,0,0,0,2.8-2.8h0A2.8,2.8,0,0,0,326.81,271.71Z"/><path class="cls-9" d="M326.81,283.84H235.52a2.86,2.86,0,0,0-2.89,2.75,2.8,2.8,0,0,0,2.8,2.85h91.38a2.8,2.8,0,0,0,2.8-2.8h0A2.8,2.8,0,0,0,326.81,283.84Z"/><path class="cls-9" d="M326.81,318.12H235.52a2.86,2.86,0,0,0-2.89,2.74,2.81,2.81,0,0,0,2.8,2.86h91.38a2.8,2.8,0,0,0,2.8-2.8h0A2.8,2.8,0,0,0,326.81,318.12Z"/><path class="cls-9" d="M326.81,330.25H235.52a2.86,2.86,0,0,0-2.89,2.75,2.8,2.8,0,0,0,2.8,2.85h91.38a2.8,2.8,0,0,0,2.8-2.8h0A2.8,2.8,0,0,0,326.81,330.25Z"/><path class="cls-9" d="M326.81,342.38H235.52a2.86,2.86,0,0,0-2.89,2.75,2.8,2.8,0,0,0,2.8,2.85h91.38a2.8,2.8,0,0,0,2.8-2.8h0A2.8,2.8,0,0,0,326.81,342.38Z"/><path class="cls-9" d="M93.17,221.05h0a2.81,2.81,0,0,0,2.8,2.8H219.1a2.8,2.8,0,0,0,2.8-2.8h0a2.8,2.8,0,0,0-2.8-2.8H96A2.8,2.8,0,0,0,93.17,221.05Z"/><path class="cls-9" d="M93.17,233.18h0A2.8,2.8,0,0,0,96,236H219.1a2.8,2.8,0,0,0,2.8-2.8h0a2.8,2.8,0,0,0-2.8-2.8H96A2.8,2.8,0,0,0,93.17,233.18Z"/><path class="cls-9" d="M93.17,245.31h0a2.8,2.8,0,0,0,2.8,2.8H219.1a2.8,2.8,0,0,0,2.8-2.8h0a2.8,2.8,0,0,0-2.8-2.8H96A2.81,2.81,0,0,0,93.17,245.31Z"/><rect class="cls-9" x="93.18" y="261.85" width="128.72" height="86.13" rx="1.33"/><text class="cls-10" transform="translate(93.17 147.93)">N<tspan class="cls-11" x="38.59" y="0">E</tspan><tspan class="cls-12" x="70.42" y="0">W</tspan><tspan x="127.59" y="0">S</tspan></text><rect class="cls-9" x="263.52" y="116.43" width="66.16" height="31.59" rx="3.34"/><rect class="cls-5" x="93.18" y="156.02" width="236.49" height="7.91"/><rect class="cls-5" x="232.63" y="300.96" width="96.98" height="7.91"/><rect class="cls-13" x="232.63" y="178.42" width="97.05" height="69.45"/><circle class="cls-14" cx="288.82" cy="207.01" r="19.27" transform="translate(21.44 441.07) rotate(-76.83)"/><polygon class="cls-15" points="329.68 229.5 324.96 221.56 309.33 195.23 278.07 247.88 329.68 247.88 329.68 229.5"/><polygon class="cls-16" points="271.6 247.88 232.63 247.88 252.12 216.48 271.6 185.08 291.08 216.48 310.57 247.88 271.6 247.88"/><polygon class="cls-6" points="258.97 205.44 271.6 214.9 284.23 205.44 271.6 185.08 258.97 205.44"/><polygon class="cls-6" points="298.69 213.15 309.33 221.56 319.97 213.15 309.33 195.23 298.69 213.15"/><ellipse class="cls-2" cx="336.55" cy="385.01" rx="55.17" ry="6.64"/><path class="cls-3" d="M378.76,385.38H336.55a7.85,7.85,0,0,1,7.84-7.84h.07s9-1.16,9-8.48V325.41h8.47v43.65c0,7.32,8.95,8.48,8.95,8.48h.08A7.84,7.84,0,0,1,378.76,385.38Z"/><polygon class="cls-4" points="361.89 325.41 361.89 327.15 353.42 329.66 353.42 325.41 361.89 325.41"/><path class="cls-5" d="M398.24,325.41H317.07a15.53,15.53,0,0,1,15.33-12.77l25.25.07,25.26-.07A15.53,15.53,0,0,1,398.24,325.41Z"/><path class="cls-17" d="M340.4,230.56c-2.12,7.83-12.79,28.21-16.93,31.13-5.4,3.81-22.31,10.94-31.11,14.59-1.59.65,4.3,7.6,4.3,7.6s22.75-5.79,32-11.7c2.62-1.68,8.3-7.36,15.5-18.76,2.18-3.45,7.23-10.32,7.79-15.22C352.61,232.56,346.25,228.67,340.4,230.56Z"/><path class="cls-18" d="M315,366.33l.29,8.51s-2.1,1.56-6.46.79L307,366.47Z"/><path class="cls-17" d="M309.74,374.52s-1.48-2.06-2.69-2-10.57,7.3-13.75,7.87-3,4.52-1.77,5c1.42.51,25,.07,25,.07s.89-8.37.12-10.63S312.21,375.09,309.74,374.52Z"/><path class="cls-6" d="M304.55,379.58a.41.41,0,0,0,.34,0,.45.45,0,0,0,.18-.61,6.87,6.87,0,0,0-2.28-2.44,3.08,3.08,0,0,0-3.15.1.45.45,0,0,0-.1.62.44.44,0,0,0,.62.1,2.22,2.22,0,0,1,2.22,0,6.15,6.15,0,0,1,1.91,2.08A.41.41,0,0,0,304.55,379.58Z"/><path class="cls-6" d="M305.89,378.35a.48.48,0,0,0,.35,0,.45.45,0,0,0,.17-.61,6.77,6.77,0,0,0-2.28-2.44,3.06,3.06,0,0,0-3.15.1.44.44,0,0,0,.52.72,2.18,2.18,0,0,1,2.22,0,6,6,0,0,1,1.91,2.09A.45.45,0,0,0,305.89,378.35Z"/><path class="cls-6" d="M302.73,380.57a.43.43,0,0,0,.35,0,.45.45,0,0,0,.18-.61,6.87,6.87,0,0,0-2.28-2.44,3.08,3.08,0,0,0-3.15.1.44.44,0,0,0,.52.72,2.22,2.22,0,0,1,2.22,0,6,6,0,0,1,1.91,2.08A.42.42,0,0,0,302.73,380.57Z"/><path class="cls-15" d="M337.24,293.77s-32.95-5.44-42.85.76c-7.5,4.7,11.83,74.09,11.83,74.09,3.44,1.07,8.22-.42,10.09-2.29,0,0,3-8.19.25-31.88-.37-3.15,0-10.33-3.36-23.05l25.08-11.08Z"/><path class="cls-19" d="M366.57,220.58s9.13,3,14,7.27.8,17.08.92,24.34-1.08,49.42-11.48,54.72c-7.86,4-40.93-2.07-38.51-12.85a351.24,351.24,0,0,0,6.77-38.17c1.4-11.76.81-20.45,2.12-25.33S357,220.08,357,220.08Z"/><path class="cls-6" d="M356.51,220.27a11.76,11.76,0,0,0-4.5,1.88s-.11,5,2.25,7.48l6.48-4.29Z"/><path class="cls-6" d="M366.84,220.68a6.5,6.5,0,0,1,3.76,1.47s.11,5-2.25,7.48l-6.48-4.29Z"/><path class="cls-17" d="M357.24,235.94c4.68.91,9.95-3.23,10.18-3.41A.33.33,0,1,0,367,232c-.05,0-5.58,4.37-10,3.18a.34.34,0,1,0-.17.65Z"/><path class="cls-17" d="M363.89,286.19a.34.34,0,0,0,.33-.3.34.34,0,0,0-.3-.37c-12.29-1.42-17.39-22.71-17.44-22.92a.33.33,0,1,0-.65.15c.2.9,5.25,22,18,23.44Z"/><path class="cls-17" d="M359,279.75a.34.34,0,0,0,.18-.63c-6.55-4-7.52-10-7.53-10a.34.34,0,0,0-.38-.29.34.34,0,0,0-.28.39c0,.25,1,6.3,7.83,10.51A.41.41,0,0,0,359,279.75Z"/><path class="cls-16" d="M345.31,200.79a13.46,13.46,0,0,0,15.61,10.92c7.33-1.29,11.51-8.2,10.22-15.53s-7.58-12.3-14.91-11A13.46,13.46,0,0,0,345.31,200.79Z"/><path class="cls-16" d="M345.93,196.11s-6-2.35-4.52-5.34c1-1.92,3.15-.79,4.12-3.68s5-3.35,8.41-3.26c3.12.08,4.17-1.38,8.77-.69s6.67,4.29,4.61,6.87S345.93,196.11,345.93,196.11Z"/><path class="cls-20" d="M348.19,204.11s-2.59-2.43-3.75.16,2.27,9,5.8,6.7Z"/><path class="cls-21" d="M349,209a.33.33,0,0,1-.35-.19,5.14,5.14,0,0,0-3.33-2.48.33.33,0,1,1,.12-.64,5.65,5.65,0,0,1,3.8,2.84.33.33,0,0,1-.15.44Z"/><path class="cls-21" d="M346.63,208.33a.28.28,0,0,1-.18,0,.33.33,0,0,1-.18-.43,3.06,3.06,0,0,1,1.05-1.19.32.32,0,0,1,.36.54,2.34,2.34,0,0,0-.8.91A.33.33,0,0,1,346.63,208.33Z"/><path class="cls-18" d="M365.7,214.23l1.21,6.8s-2.27,3.5-5,4.22S357,223,357,223l-1.16-6.55Z"/><path class="cls-20" d="M365.7,214.23l.54,3c-1.48,2.37-4.66,3.45-9.63,3.6l-.78-4.39Z"/><path class="cls-18" d="M370.43,204.23c0,.68-.05,1.33-.11,1.91s-.13,1.21-.24,1.87c-.86,5.3-3.54,12.44-13,10.83-4.71-.8-7.63-5.37-9.44-10.23-.43-1.16-.79-2.35-1.11-3.5a54,54,0,0,1-1.2-5.69,7.24,7.24,0,0,1,2.54-6.69c5.32-4.4,11.79-4.25,16.18-3.4a7.19,7.19,0,0,1,5.77,6.15A68.78,68.78,0,0,1,370.43,204.23Z"/><path class="cls-16" d="M369.12,201.85l-1.71.54a20.55,20.55,0,0,1-.07,6.3c-2.31-2.13-8.78,1.23-8.78,1.23s-6.87-.61-7.8,1.88c-1-1.35-2.14-4.43-2.89-6.55l-1.37-.14c.32,1.15.68,2.34,1.11,3.5,1.81,4.86,4.73,9.43,9.44,10.23,9.49,1.61,12.17-5.53,13-10.83C369.69,204.93,369.12,201.85,369.12,201.85Zm-4.2,9.34a2.24,2.24,0,0,1-.6,3,10.52,10.52,0,0,1-6.5,1.92,8.48,8.48,0,0,1-2.62-.59,2,2,0,0,1-.34-3.49,9,9,0,0,1,4.48-1C362.77,209.65,364.27,210.22,364.92,211.19Z"/><path class="cls-16" d="M353.39,204.11c.13.72-.14,1.38-.6,1.46s-.94-.44-1.07-1.17.14-1.38.61-1.46S353.27,203.38,353.39,204.11Z"/><path class="cls-16" d="M363.19,202.38c.13.72-.14,1.38-.61,1.46s-.94-.44-1.07-1.17.15-1.38.61-1.46S363.06,201.65,363.19,202.38Z"/><path class="cls-16" d="M349.12,200.7s3.24-2,6.13-1.31v1.28a11.51,11.51,0,0,0-5.67,1.43C349.29,201.56,349,201.33,349.12,200.7Z"/><path class="cls-16" d="M365.05,197.88s-3.72-.76-6.2.87l.45,1.21a11.55,11.55,0,0,1,5.82-.61C365.19,198.75,365.38,198.43,365.05,197.88Z"/><path class="cls-20" d="M358.94,208.46a3.36,3.36,0,0,0,1.13-.45.33.33,0,0,0-.35-.55c-.27.17-.94.48-1.28.35a.39.39,0,0,1-.21-.28,47.24,47.24,0,0,1-.68-5,.33.33,0,0,0-.36-.3.33.33,0,0,0-.29.36,47.72,47.72,0,0,0,.7,5.1,1,1,0,0,0,.61.71A1.29,1.29,0,0,0,358.94,208.46Z"/><path class="cls-6" d="M355.22,212.34c.5,1.29,1.81,3.58,4.77,3s3.41-2.9,3.42-4.49Z"/><path class="cls-16" d="M348.24,206.33a13.68,13.68,0,0,1-1-3.89c0-1.61,1.17-2.76.47-4.19s.61-3.33,1.73-3.81,4-.38,6.43-2.13,7-1.6,8-.07c1.23,1.84.07,2.24,2.85,4,1.11.69.37,3.13.47,4.61a9.84,9.84,0,0,0,.24,1.73l.08.36,2.88-.51c-.08-2.31-.34-4.83-.61-6.93a7.19,7.19,0,0,0-5.77-6.15c-4.39-.85-10.86-1-16.18,3.4a7.22,7.22,0,0,0-2.54,6.69,53.94,53.94,0,0,0,1.62,7.14Z"/><path class="cls-18" d="M369.34,203.88a12.49,12.49,0,0,1-.22-2.28,2.72,2.72,0,0,1,1.1-2.62,1.79,1.79,0,0,1,2.46.17c2,2,1.51,9.56-2.61,8.57Z"/><path class="cls-20" d="M370.44,205.49a.33.33,0,0,0,.2-.34,5,5,0,0,1,1.56-3.85.34.34,0,0,0,0-.47.33.33,0,0,0-.46,0,5.62,5.62,0,0,0-1.77,4.4.34.34,0,0,0,.36.3Z"/><path class="cls-20" d="M372.13,203.66a.33.33,0,0,0,.15-.11.33.33,0,0,0-.07-.46,3.06,3.06,0,0,0-1.51-.48.35.35,0,0,0-.35.32.33.33,0,0,0,.32.34,2.36,2.36,0,0,1,1.15.35A.32.32,0,0,0,372.13,203.66Z"/><path class="cls-16" d="M358.6,202l.12.55a4.22,4.22,0,0,0,1.82,2.7,4.18,4.18,0,0,0,3.15.6l.14,0a3.77,3.77,0,0,0,2.33-1.66,4.12,4.12,0,0,0,.6-3.15l-.13-.65a1.69,1.69,0,0,0-.2-.5,1.32,1.32,0,0,0-.44-.44,1.47,1.47,0,0,0-1.11-.22l-5.12,1.05a1.48,1.48,0,0,0-1.16,1.71Zm.61-.13a.87.87,0,0,1,.67-1l5.12-1.05a.88.88,0,0,1,1,.68l.13.66a3.53,3.53,0,0,1-.51,2.68,3.2,3.2,0,0,1-2,1.4l-.12,0a3.56,3.56,0,0,1-2.69-.52,3.62,3.62,0,0,1-1.56-2.3Z"/><path class="cls-16" d="M348.36,204.05l.11.55a4.23,4.23,0,0,0,5,3.31l.13,0a3.84,3.84,0,0,0,2.34-1.66,4.15,4.15,0,0,0,.6-3.16l-.13-.65v0a1.5,1.5,0,0,0-.24-.53,1.47,1.47,0,0,0-1.5-.6l-5.12,1.05a1.48,1.48,0,0,0-1,.75,1.43,1.43,0,0,0-.17.6A1.08,1.08,0,0,0,348.36,204.05Zm.6-.12a.88.88,0,0,1,.68-1l5.12-1a.85.85,0,0,1,1,.67l.14.66a3.57,3.57,0,0,1-.51,2.68,3.22,3.22,0,0,1-2,1.41l-.13,0a3.53,3.53,0,0,1-2.68-.52,3.58,3.58,0,0,1-1.56-2.3Z"/><path class="cls-16" d="M369.93,197.87a7.42,7.42,0,0,0-3.33,1.38c-.13.1-.44.41-.46.42l.39.46s.36-.33.5-.43a6.49,6.49,0,0,1,3-1.22Z"/><path class="cls-16" d="M359,201.9l.09-.61a6,6,0,0,0-1.88.06,4.19,4.19,0,0,0-1.59.66l.37.49a3.75,3.75,0,0,1,1.34-.54A5.74,5.74,0,0,1,359,201.9Z"/><path class="cls-16" d="M345.93,202.93l.12.6a7.78,7.78,0,0,1,2.56.18l.16-.6A8.47,8.47,0,0,0,345.93,202.93Z"/><path class="cls-18" d="M333.43,366.33l.3,8.51s-2.11,1.56-6.46.79l-1.78-9.16Z"/><path class="cls-19" d="M328.19,374.52s-1.48-2.06-2.68-2-10.57,7.3-13.75,7.87-3,4.52-1.78,5c1.43.51,24.95.07,24.95.07s.9-8.37.12-10.63S330.67,375.09,328.19,374.52Z"/><path class="cls-6" d="M323,379.58a.43.43,0,0,0,.35,0,.45.45,0,0,0,.17-.61,6.77,6.77,0,0,0-2.28-2.44,3.06,3.06,0,0,0-3.14.1.44.44,0,0,0,.52.72,2.19,2.19,0,0,1,2.21,0,6.11,6.11,0,0,1,1.92,2.08A.4.4,0,0,0,323,379.58Z"/><path class="cls-6" d="M324.34,378.35a.47.47,0,0,0,.35,0,.45.45,0,0,0,.18-.61,6.87,6.87,0,0,0-2.28-2.44,3.05,3.05,0,0,0-3.15.1.44.44,0,0,0,.52.72,2.18,2.18,0,0,1,2.22,0,6,6,0,0,1,1.91,2.09A.46.46,0,0,0,324.34,378.35Z"/><path class="cls-6" d="M321.19,380.57a.43.43,0,0,0,.35,0,.45.45,0,0,0,.17-.61,6.77,6.77,0,0,0-2.28-2.44,3.06,3.06,0,0,0-3.14.1.44.44,0,0,0-.1.62.45.45,0,0,0,.62.1,2.19,2.19,0,0,1,2.21,0,5.93,5.93,0,0,1,1.91,2.08A.44.44,0,0,0,321.19,380.57Z"/><path class="cls-16" d="M377,294.56s-57.14-3.14-66.95,0c-8.44,2.67,14.63,74.09,14.63,74.09,3.44,1.07,8.23-.42,10.09-2.29,0,0,1.76-4.26-1-28a145.59,145.59,0,0,0-4.12-25.68l37.91.19c8.12,0,10.68-6.85,9.83-14.92Z"/><path class="cls-18" d="M321.94,277s-8.6,1.46-12.19,4.45-8.4,5.57-7.68,7.12,5.78-1.73,5.78-1.73,1.21,2.79,5.36,4,13-5.92,13-5.92Z"/><path class="cls-17" d="M378.64,226.35c-4.8,7.28-23.16,32.42-27.31,35.34-5.39,3.81-20.48,11.71-29.28,15.35-1.59.66,3.53,8.14,3.53,8.14s21.7-7.09,31-13c2.62-1.68,13.53-12.6,20.48-22.29,2.38-3.32,6.25-7.93,6.82-12.84C384.49,231.41,382.72,228.39,378.64,226.35Z"/><rect class="cls-15" x="288.39" y="288.3" width="47.75" height="6.22" rx="2.31"/><path class="cls-16" d="M280.36,294.53l-9.71-36.39a3.22,3.22,0,0,1,3.11-4h21.38a3.21,3.21,0,0,1,3.09,2.35l10.7,38.09Z"/><path class="cls-15" d="M298.24,256.44l10.61,37.77h2.44l-10.61-37.77a3.22,3.22,0,0,0-3.1-2.35h-2.44A3.23,3.23,0,0,1,298.24,256.44Z"/><path class="cls-22" d="M292.74,275.94a3.34,3.34,0,0,1-3.34,4.34,5.79,5.79,0,0,1-5.35-4.34,3.35,3.35,0,0,1,3.34-4.35A5.81,5.81,0,0,1,292.74,275.94Z"/><ellipse class="cls-2" cx="164.19" cy="378.89" rx="56.45" ry="8.29"/><path class="cls-23" d="M135,353.16h-3.29c-10.88,0-19.52-3.24-25.68-9.62-9.32-9.65-10.25-23.92-10-31.57a9.59,9.59,0,0,1,9.62-9.27h45.58Zm-29.33-41.44a.59.59,0,0,0-.6.57c-.22,6.22.45,17.73,7.45,25,3.81,3.94,9.16,6.2,15.94,6.73l10.4-32.29Z"/><path class="cls-23" d="M208.86,376.06V281.84c0-11.3-83.69-11.3-83.69,0v94.22C125.17,384.64,208.86,384.64,208.86,376.06Z"/><g class="cls-24"><path class="cls-9" d="M208.86,291.67v5.46A166.24,166.24,0,0,1,167.33,302c-19.36,0-33.63-2.76-42.16-5.05v-5.48c8,2.25,22.38,5.28,42.16,5.28C186.54,296.73,200.71,293.89,208.86,291.67Z"/></g><path class="cls-16" d="M204.65,280.65c0,2.7-16.85,4.89-37.63,4.89s-37.64-2.19-37.64-4.89,16.85-4.89,37.64-4.89S204.65,278,204.65,280.65Z"/><path class="cls-18" d="M216.27,113.21c0-.54-1.58-1.62-3.15-2.55a1.3,1.3,0,0,0,.08-.17c2.26,1,6.19,2.64,6.1,1.45-.06-.78-3.38-2.27-5.4-3.11,0-.11.08-.22.11-.33,2.43,1,7.2,2.69,7,1.35-.11-.9-4.29-2.46-6.45-3.21l.08-.29c2.09.74,6.15,2,6,.66s-6.51-2.82-6.51-2.82h0l-2.3-.89s.2-.83,2-1,2.91-1.17.69-1.56c-2.49-.43-4.81,0-6.54-.39s-3.56,1.21-3.56,1.21l-2.64,3.92s5.85,5.51,10,6.37h0C213.76,113,216.24,114.16,216.27,113.21Z"/><path class="cls-17" d="M218.88,59.8l11.9,36.54-9.91,0-7.16-17S214.48,62.15,218.88,59.8Z"/><path class="cls-18" d="M228.8,95.88s.81,3.76,2.27,4.81,1.17-4.18,1.17-4.18.4,6.32,1.92,6.51,1.32-6,1.32-6,.92,4.23,2.07,4.5,1.19-4.23,1.19-4.23,1.07,3.28,1.92,3.58,1.33-3.49.88-5.43-2.88-.81-2.88-.81-2.26-.69-3.06.08c0,0-2-.92-3.18-.37C232.42,94.39,229.11,93.38,228.8,95.88Z"/><path class="cls-19" d="M217.16,68c.38,3.31,1.43,6.65,0,11.91a21.92,21.92,0,0,1-2.43,5.27s0,.09-.07.13l-.12.21,0,.06h0c0,.1,0,.2,0,.3s0,.27-.05.39v0c-.19,1.35-.33,2.23-.43,2.83l-1.34,7.17H184.16l.15-40.56,9.58-.85h0l.83-.07.82-.08h.1l2.58-.24.68,0A24.33,24.33,0,0,1,209.1,56l.11,0,1.44.55h0l.08,0,1,.39.39.15,6.74,2.61C218.54,61.32,217.46,66.49,217.16,68Z"/><path class="cls-17" d="M214.57,85.53l0,.06h0c0,.1,0,.2,0,.3s0,.27-.05.39v0c-8.22,1.33-17-.68-17.63-.82a.34.34,0,0,1,.16-.67C197.12,84.84,206.26,86.93,214.57,85.53Z"/><path class="cls-18" d="M212.14,57.2c-.14,3.14-1.13,7.53-3.54,8.86-3.93,2.17-11.58-4.87-14.71-11.17h0l.83-.07.82-.08h.1l2.58-.24.68,0A24.33,24.33,0,0,1,209.1,56l.11,0,1.44.55h0l.08,0,1,.39Z"/><path class="cls-16" d="M197,43.54a6.66,6.66,0,0,1-3.24-8.7l0-.09c1.55-3.56,3.74-8.47,3.74-8.47,4.86-10.58,16.53-8.21,16.53-8.21,14.17,2.6,14.31,15.28,12.22,21.53-.14.42-.3.85-.48,1.27v0A19.67,19.67,0,0,1,224.29,44a11.83,11.83,0,0,1-15,5.08Q203.08,46.42,197,43.54Z"/><path class="cls-16" d="M220.32,20.3s-2.72-14-16.08-8.58-10.73,35.12-23.05,33.82c0,0,3.92,5.9,12.32,3.23S199.55,16.17,220.32,20.3Z"/><path class="cls-20" d="M221,40.13s2.74-1.83,3.52.67-3.21,7.84-6.26,5.23Z"/><path class="cls-6" d="M219.93,46.12a.68.68,0,1,0,1.29.42.67.67,0,0,0-.43-.85A.68.68,0,0,0,219.93,46.12Z"/><path class="cls-21" d="M219.59,44.42a.31.31,0,0,0,.35-.11,4.73,4.73,0,0,1,3.44-1.77.29.29,0,0,0,.29-.31.33.33,0,0,0-.33-.29,5.26,5.26,0,0,0-3.92,2,.31.31,0,0,0,.09.42Z"/><path class="cls-21" d="M221.93,44.15a.37.37,0,0,0,.18,0,.28.28,0,0,0,.21-.36,2.66,2.66,0,0,0-.84-1.22.31.31,0,0,0-.44,0,.29.29,0,0,0,0,.42,2.27,2.27,0,0,1,.65.93A.32.32,0,0,0,221.93,44.15Z"/><path class="cls-18" d="M201.93,47.82l-2.39,7.35s2.56,3.76,5.16,4.85,4.53-1.74,4.53-1.74l2.23-6.85Z"/><path class="cls-20" d="M201.7,48.54l-.95,2.93c1.14,2.57,4.09,4.31,9,5.14l1.45-4.46Z"/><path class="cls-18" d="M221.21,43.3c-.31.69-.65,1.38-1,2.06-2.4,4.51-7.11,8.69-11.21,8.31-8.86-.81-10.18-8.4-10-13.61,0-.58.5-1.1.59-1.77a49.05,49.05,0,0,1,.57-5.18c.28-1.19.58-2.35.87-3.4a7.1,7.1,0,0,1,6.34-5.26c4.28-.28,10.43.4,14.84,5.38a7.16,7.16,0,0,1,1.46,6.85A54.68,54.68,0,0,1,221.21,43.3Z"/><path class="cls-20" d="M209.94,43.73a.34.34,0,0,1-.23-.37.34.34,0,0,1,.38-.28l1.16.17-.2-4.53a.34.34,0,0,1,.32-.35.32.32,0,0,1,.35.32L212,44l-2-.3Z"/><path class="cls-16" d="M220.66,34.21c2.74,2.52.47,6,.94,8.3,0,.14.09.19.19.15a52.62,52.62,0,0,0,2.55-6.75,7.27,7.27,0,0,0-1.59-7c-4.69-5.13-11.16-5.89-15.66-5.65a7.25,7.25,0,0,0-6.61,5.32c-.29,1.06-.59,2.25-.88,3.46.43.5,1.69,1.07,1.47,1.94-.6,2.33-1,3.92-.47,3.94.87,0,2.27-2.57,1.93-4.65,0,0,1.13-1,4.51-1.14a61.19,61.19,0,0,0,8.77-1.22,7.29,7.29,0,0,0,2.62-1.19A7.16,7.16,0,0,0,220.66,34.21Z"/><path class="cls-16" d="M215.43,39.61c-.23.7-.05,1.4.4,1.54s1-.31,1.23-1,.05-1.4-.4-1.55S215.66,38.9,215.43,39.61Z"/><path class="cls-16" d="M206.65,36.75c-.23.71-.06,1.4.39,1.54s1-.3,1.23-1,0-1.4-.4-1.54S206.88,36.05,206.65,36.75Z"/><path class="cls-16" d="M219.52,37.23a16.42,16.42,0,0,0-3.28-1.39.61.61,0,0,0-.81.39h0a.53.53,0,0,0,.47.56,18.71,18.71,0,0,1,4.54,1.8.65.65,0,0,0-.08-.59A2.12,2.12,0,0,0,219.52,37.23Z"/><path class="cls-16" d="M206.41,33.13a16.73,16.73,0,0,1,3.48.77.61.61,0,0,1,.44.78h0a.55.55,0,0,1-.7.19,18.57,18.57,0,0,0-4.75-1.15c0-.19.19-.33.4-.44A2.15,2.15,0,0,1,206.41,33.13Z"/><path class="cls-6" d="M212.87,46.8a3.83,3.83,0,0,1-4.72,2,3.7,3.7,0,0,1-2.64-4.39Z"/><path class="cls-20" d="M207.56,50.73a3.27,3.27,0,0,0,1.61.05.33.33,0,0,0-.15-.64h0a2.75,2.75,0,0,1-1.26,0,2.8,2.8,0,0,1-1.1-.73.32.32,0,0,0-.46,0,.33.33,0,0,0,0,.46A3.42,3.42,0,0,0,207.56,50.73Z"/><path class="cls-18" d="M201.09,33.64s-1.37-3.46-3.34-1.92-2,8,1.73,7.61Z"/><path class="cls-6" d="M197.39,38.79a.69.69,0,0,0,.44.86.67.67,0,0,0,.85-.44.66.66,0,0,0-.43-.85A.68.68,0,0,0,197.39,38.79Z"/><path class="cls-20" d="M199.36,37.3a.29.29,0,0,1-.2-.29,4.5,4.5,0,0,0-1.56-3.31.29.29,0,0,1,0-.41.3.3,0,0,1,.41,0A5,5,0,0,1,199.74,37a.29.29,0,0,1-.3.28Z"/><path class="cls-20" d="M197.77,35.78a.3.3,0,0,1-.13-.09.3.3,0,0,1,0-.41,2.63,2.63,0,0,1,1.3-.5.3.3,0,0,1,.32.26.29.29,0,0,1-.26.32,2,2,0,0,0-1,.37A.32.32,0,0,1,197.77,35.78Z"/><path class="cls-17" d="M203.46,106.93s-13.56-2.35-31.37-11.79a9.57,9.57,0,0,1-1.5-1l-.54-.43h0c-.38-5.73,3.23-15.35,5.76-23.77,1.67-5.57,3.87-12.28,8.49-14.16a17.6,17.6,0,0,1,2.42,6.93,35.72,35.72,0,0,1-2,12.5c-1.3,3.89-2.21,8.86-3.4,12.74l-.12.53c.15,0,5.07,2.77,11.79,5.87,7.37,3.39,12.71,6.45,12.71,6.45C203.35,102.9,203.46,106.93,203.46,106.93Z"/><path class="cls-19" d="M40.57,26.7h-.89a.44.44,0,0,1-.39-.22.45.45,0,0,1,0-.45l.45-.77a.44.44,0,0,1,.61-.16.45.45,0,0,1,.16.61l-.06.1h.12a.45.45,0,0,1,0,.89Z"/><path class="cls-19" d="M40.91,24.56a.46.46,0,0,1-.22-.06.45.45,0,0,1-.16-.61l.79-1.38a.45.45,0,0,1,.61-.16.44.44,0,0,1,.16.61l-.79,1.37A.43.43,0,0,1,40.91,24.56Zm1.59-2.75a.43.43,0,0,1-.22-.06.45.45,0,0,1-.17-.61l.8-1.37a.44.44,0,0,1,.61-.17.45.45,0,0,1,.16.61l-.79,1.38A.47.47,0,0,1,42.5,21.81Zm1.59-2.75a.46.46,0,0,1-.23-.06.45.45,0,0,1-.16-.61L44.49,17a.45.45,0,0,1,.78.45l-.8,1.37A.44.44,0,0,1,44.09,19.06Z"/><path class="cls-19" d="M46.57,16.32a.43.43,0,0,1-.39-.23l-.06-.1-.06.1a.44.44,0,1,1-.77-.44l.44-.78a.46.46,0,0,1,.78,0l.44.78a.44.44,0,0,1-.38.67Z"/><path class="cls-19" d="M51.32,24.56a.43.43,0,0,1-.38-.23L50.14,23a.45.45,0,0,1,.17-.61.45.45,0,0,1,.61.16l.79,1.38a.45.45,0,0,1-.16.61A.46.46,0,0,1,51.32,24.56Zm-1.58-2.75a.44.44,0,0,1-.39-.22l-.79-1.38a.44.44,0,1,1,.77-.44l.79,1.37a.44.44,0,0,1-.16.61A.46.46,0,0,1,49.74,21.81Zm-1.59-2.75a.47.47,0,0,1-.39-.22L47,17.47a.45.45,0,0,1,.16-.61.44.44,0,0,1,.61.16l.8,1.37a.44.44,0,0,1-.17.61A.43.43,0,0,1,48.15,19.06Z"/><path class="cls-19" d="M52.56,26.7h-.89a.45.45,0,1,1,0-.89h.12l-.06-.1a.45.45,0,0,1,.16-.61.44.44,0,0,1,.61.16L53,26a.45.45,0,0,1,0,.45A.44.44,0,0,1,52.56,26.7Z"/><path class="cls-19" d="M50.08,26.7H48.5a.45.45,0,1,1,0-.89h1.58a.45.45,0,1,1,0,.89Zm-3.17,0H45.33a.45.45,0,1,1,0-.89h1.58a.45.45,0,1,1,0,.89Zm-3.17,0H42.15a.45.45,0,0,1,0-.89h1.59a.45.45,0,1,1,0,.89Z"/><path class="cls-13" d="M68,32.51h-.07A6.53,6.53,0,0,1,66.09,32a.45.45,0,0,1-.22-.59.45.45,0,0,1,.59-.22,5.93,5.93,0,0,0,1.59.47.44.44,0,0,1-.06.88Zm1.77,0a.44.44,0,0,1-.06-.88,5.93,5.93,0,0,0,1.59-.47.45.45,0,0,1,.37.81,6.53,6.53,0,0,1-1.83.54ZM73,31.05a.44.44,0,0,1-.29-.78A6.43,6.43,0,0,0,73.76,29a.44.44,0,0,1,.61-.14.45.45,0,0,1,.14.62,6.89,6.89,0,0,1-1.25,1.44A.46.46,0,0,1,73,31.05Zm-8.19,0a.46.46,0,0,1-.29-.11,6.89,6.89,0,0,1-1.25-1.44.45.45,0,0,1,.14-.62A.44.44,0,0,1,64,29a6.43,6.43,0,0,0,1.08,1.25.44.44,0,0,1-.29.78Zm10.09-3-.12,0a.45.45,0,0,1-.31-.55,5.66,5.66,0,0,0,.24-1.64.45.45,0,1,1,.89,0,6.69,6.69,0,0,1-.27,1.89A.45.45,0,0,1,74.87,28.09Zm-12,0a.45.45,0,0,1-.43-.32,6.69,6.69,0,0,1-.27-1.89.45.45,0,1,1,.89,0,5.66,5.66,0,0,0,.24,1.64.45.45,0,0,1-.31.55Zm12-3.52a.46.46,0,0,1-.43-.32,5.69,5.69,0,0,0-.68-1.51.43.43,0,0,1,.13-.61.44.44,0,0,1,.62.13A6.51,6.51,0,0,1,75.3,24a.44.44,0,0,1-.3.55Zm-12,0-.13,0a.45.45,0,0,1-.3-.56,6.94,6.94,0,0,1,.79-1.73.44.44,0,0,1,.62-.13.43.43,0,0,1,.13.61,5.63,5.63,0,0,0-.68,1.5A.46.46,0,0,1,62.88,24.57ZM73,21.6a.43.43,0,0,1-.29-.1,5.71,5.71,0,0,0-1.39-.9.43.43,0,0,1-.22-.59.45.45,0,0,1,.59-.22,6.43,6.43,0,0,1,1.6,1,.44.44,0,0,1,0,.63A.46.46,0,0,1,73,21.6Zm-8.19,0a.43.43,0,0,1-.33-.15.44.44,0,0,1,0-.63,6.43,6.43,0,0,1,1.6-1,.45.45,0,0,1,.6.22.45.45,0,0,1-.23.59,5.72,5.72,0,0,0-1.38.89A.43.43,0,0,1,64.78,21.6Zm5-1.46H69.7a5.7,5.7,0,0,0-1.65,0,.45.45,0,1,1-.13-.89,6.79,6.79,0,0,1,1.91,0,.46.46,0,0,1,.38.51A.45.45,0,0,1,69.77,20.14Z"/><path class="cls-3" d="M36.45,51.23h-.06a6.53,6.53,0,0,1-1.83-.54.45.45,0,0,1,.37-.81,5.93,5.93,0,0,0,1.59.47.45.45,0,0,1,.38.5A.46.46,0,0,1,36.45,51.23Zm1.78,0a.44.44,0,0,1-.44-.39.45.45,0,0,1,.38-.5,5.76,5.76,0,0,0,1.58-.47.46.46,0,0,1,.6.22.45.45,0,0,1-.22.59,6.63,6.63,0,0,1-1.83.54Zm3.21-1.47a.45.45,0,0,1-.34-.15.45.45,0,0,1,0-.63,5.66,5.66,0,0,0,1.09-1.25.43.43,0,0,1,.61-.13.44.44,0,0,1,.14.61,6.89,6.89,0,0,1-1.25,1.44A.42.42,0,0,1,41.44,49.76Zm-8.19,0a.41.41,0,0,1-.29-.11,6.89,6.89,0,0,1-1.25-1.44.45.45,0,0,1,.13-.61.44.44,0,0,1,.62.13A5.62,5.62,0,0,0,33.54,49a.44.44,0,0,1-.29.78Zm10.09-3-.12,0a.45.45,0,0,1-.31-.55,5.66,5.66,0,0,0,.24-1.64.45.45,0,0,1,.89,0,6.69,6.69,0,0,1-.27,1.89A.46.46,0,0,1,43.34,46.8Zm-12,0a.44.44,0,0,1-.43-.32,6.69,6.69,0,0,1-.27-1.89.45.45,0,0,1,.89,0,6,6,0,0,0,.23,1.64.44.44,0,0,1-.3.55Zm12-3.52a.46.46,0,0,1-.43-.32,5.49,5.49,0,0,0-.68-1.5.44.44,0,0,1,.13-.62A.46.46,0,0,1,43,41a6.84,6.84,0,0,1,.79,1.74.45.45,0,0,1-.3.55Zm-12,0-.13,0a.44.44,0,0,1-.3-.55A6.51,6.51,0,0,1,31.71,41a.44.44,0,0,1,.62-.13.46.46,0,0,1,.13.62,5.84,5.84,0,0,0-.69,1.5A.44.44,0,0,1,31.35,43.28Zm10.09-3a.48.48,0,0,1-.3-.11,5.52,5.52,0,0,0-1.39-.9.45.45,0,0,1-.22-.59.46.46,0,0,1,.6-.22,6.73,6.73,0,0,1,1.6,1,.45.45,0,0,1-.29.79Zm-8.19,0a.47.47,0,0,1-.34-.16.45.45,0,0,1,.05-.63,6.73,6.73,0,0,1,1.6-1,.45.45,0,0,1,.59.22.43.43,0,0,1-.22.59,5.71,5.71,0,0,0-1.39.9A.44.44,0,0,1,33.25,40.32Zm5-1.47h-.06a5.7,5.7,0,0,0-1.65,0,.45.45,0,1,1-.13-.89,7.63,7.63,0,0,1,1.91,0,.45.45,0,0,1-.07.89Z"/><path class="cls-13" d="M345.41,76.4h.9a.45.45,0,0,0,.38-.23.43.43,0,0,0,0-.44l-.44-.78a.45.45,0,0,0-.61-.16.45.45,0,0,0-.17.61l.06.1h-.12a.45.45,0,0,0,0,.9Z"/><path class="cls-13" d="M344.68,74l-.79-1.38a.44.44,0,1,1,.77-.44l.79,1.37a.44.44,0,0,1-.16.61.46.46,0,0,1-.22.06A.44.44,0,0,1,344.68,74Zm-1.59-2.75-.79-1.37a.45.45,0,0,1,.16-.61.44.44,0,0,1,.61.16l.8,1.37a.44.44,0,0,1-.17.61.43.43,0,0,1-.22.06A.47.47,0,0,1,343.09,71.28Zm-1.58-2.75-.8-1.37a.45.45,0,0,1,.17-.61.45.45,0,0,1,.61.16l.79,1.38a.45.45,0,0,1-.16.61.46.46,0,0,1-.23.06A.43.43,0,0,1,341.51,68.53Z"/><path class="cls-13" d="M339.42,66a.44.44,0,0,0,.38-.22l.06-.11.06.11a.45.45,0,0,0,.61.16.45.45,0,0,0,.17-.61l-.45-.77a.45.45,0,0,0-.39-.23.44.44,0,0,0-.38.23l-.45.77a.45.45,0,0,0,.16.61A.46.46,0,0,0,339.42,66Z"/><path class="cls-13" d="M334.44,74.19a.45.45,0,0,1-.17-.61l.79-1.37a.45.45,0,1,1,.78.44L335.05,74a.47.47,0,0,1-.39.22A.43.43,0,0,1,334.44,74.19ZM336,71.44a.44.44,0,0,1-.16-.61l.79-1.37a.45.45,0,0,1,.77.45l-.79,1.37a.44.44,0,0,1-.39.22A.46.46,0,0,1,336,71.44Zm1.59-2.74a.45.45,0,0,1-.17-.61l.8-1.38a.45.45,0,0,1,.77.45l-.79,1.37a.46.46,0,0,1-.39.23A.43.43,0,0,1,337.61,68.7Z"/><path class="cls-13" d="M333.42,76.4h.89a.45.45,0,1,0,0-.9h-.12l.06-.1a.44.44,0,0,0-.16-.61.45.45,0,0,0-.61.16l-.45.78a.43.43,0,0,0,0,.44A.45.45,0,0,0,333.42,76.4Z"/><path class="cls-13" d="M335.45,76a.45.45,0,0,1,.45-.45h1.58a.45.45,0,1,1,0,.9H335.9A.45.45,0,0,1,335.45,76Zm3.17,0a.45.45,0,0,1,.45-.45h1.59a.45.45,0,0,1,0,.9h-1.59A.45.45,0,0,1,338.62,76Zm3.17,0a.45.45,0,0,1,.45-.45h1.59a.45.45,0,0,1,0,.9h-1.59A.45.45,0,0,1,341.79,76Z"/><path class="cls-19" d="M369,49.7h.9a.44.44,0,0,0,.38-.23.43.43,0,0,0,0-.44l-.44-.78a.45.45,0,0,0-.61-.16.45.45,0,0,0-.17.61l.06.1H369a.45.45,0,0,0,0,.9Z"/><path class="cls-19" d="M368.27,47.33,367.48,46a.44.44,0,1,1,.77-.44l.79,1.37a.44.44,0,0,1-.16.61.46.46,0,0,1-.22.06A.44.44,0,0,1,368.27,47.33Zm-1.59-2.75-.79-1.37a.45.45,0,0,1,.78-.45l.79,1.37a.44.44,0,0,1-.17.61.43.43,0,0,1-.22.06A.47.47,0,0,1,366.68,44.58Zm-1.58-2.75-.79-1.37a.44.44,0,0,1,.16-.61.45.45,0,0,1,.61.16l.79,1.38a.45.45,0,0,1-.16.61.46.46,0,0,1-.22.06A.43.43,0,0,1,365.1,41.83Z"/><path class="cls-19" d="M363,39.31a.44.44,0,0,0,.38-.22l.06-.11.06.11a.45.45,0,0,0,.61.16.45.45,0,0,0,.17-.61l-.45-.77a.45.45,0,0,0-.39-.23.44.44,0,0,0-.38.23l-.45.77a.45.45,0,0,0,.16.61A.46.46,0,0,0,363,39.31Z"/><path class="cls-19" d="M358,47.49a.45.45,0,0,1-.17-.61l.8-1.37a.44.44,0,0,1,.61-.17.45.45,0,0,1,.16.61l-.79,1.38a.47.47,0,0,1-.39.22A.43.43,0,0,1,358,47.49Zm1.58-2.75a.45.45,0,0,1-.16-.61l.79-1.37a.44.44,0,0,1,.61-.16.43.43,0,0,1,.16.61l-.79,1.37a.44.44,0,0,1-.39.22A.46.46,0,0,1,359.61,44.74ZM361.2,42a.45.45,0,0,1-.17-.61l.8-1.38a.45.45,0,0,1,.77.45l-.79,1.37a.43.43,0,0,1-.39.23A.46.46,0,0,1,361.2,42Z"/><path class="cls-19" d="M357,49.7h.89a.45.45,0,0,0,0-.9h-.12l.06-.1a.44.44,0,0,0-.16-.61.45.45,0,0,0-.61.16l-.45.78a.43.43,0,0,0,0,.44A.45.45,0,0,0,357,49.7Z"/><path class="cls-19" d="M359,49.25a.45.45,0,0,1,.45-.45h1.58a.45.45,0,1,1,0,.9h-1.58A.45.45,0,0,1,359,49.25Zm3.17,0a.45.45,0,0,1,.45-.45h1.59a.45.45,0,0,1,0,.9h-1.59A.45.45,0,0,1,362.21,49.25Zm3.18,0a.45.45,0,0,1,.44-.45h1.59a.45.45,0,0,1,0,.9h-1.59A.45.45,0,0,1,365.39,49.25Z"/><path class="cls-3" d="M343.17,54.31a.43.43,0,0,1,.38-.5,5.76,5.76,0,0,0,1.58-.47.45.45,0,0,1,.59.22.43.43,0,0,1-.22.59,6.44,6.44,0,0,1-1.83.54h-.06A.44.44,0,0,1,343.17,54.31Zm-1.4.38a6.53,6.53,0,0,1-1.83-.54.45.45,0,1,1,.37-.81,5.48,5.48,0,0,0,1.59.46.45.45,0,0,1,.37.51.44.44,0,0,1-.44.38Zm-3.43-1.57a6.35,6.35,0,0,1-1.25-1.44.45.45,0,1,1,.75-.48,6.11,6.11,0,0,0,1.08,1.25.44.44,0,0,1,.05.63.46.46,0,0,1-.34.15A.46.46,0,0,1,338.34,53.12Zm8.14,0a.45.45,0,0,1,0-.63,6.16,6.16,0,0,0,1.09-1.25.44.44,0,0,1,.61-.14.45.45,0,0,1,.14.62,6.89,6.89,0,0,1-1.25,1.44.48.48,0,0,1-.29.11A.45.45,0,0,1,346.48,53.08ZM336.3,50a6.69,6.69,0,0,1-.27-1.89.45.45,0,1,1,.89,0,6,6,0,0,0,.23,1.64.44.44,0,0,1-.3.55l-.13,0A.44.44,0,0,1,336.3,50Zm12.29.3a.45.45,0,0,1-.3-.55,5.66,5.66,0,0,0,.24-1.64.44.44,0,0,1,.44-.45.45.45,0,0,1,.45.45,6.69,6.69,0,0,1-.27,1.89.46.46,0,0,1-.43.32Zm-12-3.52a.45.45,0,0,1-.3-.56,6.29,6.29,0,0,1,.79-1.73.44.44,0,0,1,.62-.13.45.45,0,0,1,.13.61,6.06,6.06,0,0,0-.69,1.51.44.44,0,0,1-.43.32Zm11.69-.31a5.66,5.66,0,0,0-.69-1.5.45.45,0,0,1,.76-.48,6.94,6.94,0,0,1,.79,1.73.45.45,0,0,1-.3.56l-.13,0A.46.46,0,0,1,348.29,46.42Zm-10-2.79a.44.44,0,0,1,0-.63,6.43,6.43,0,0,1,1.6-1,.44.44,0,0,1,.59.22.45.45,0,0,1-.22.59,6,6,0,0,0-1.39.89.41.41,0,0,1-.29.11A.45.45,0,0,1,338.29,43.63Zm8.23,0a6,6,0,0,0-1.39-.89.45.45,0,0,1-.22-.59.44.44,0,0,1,.59-.22,6.68,6.68,0,0,1,1.61,1,.45.45,0,0,1,0,.63.45.45,0,0,1-.34.15A.42.42,0,0,1,346.52,43.67Zm-5.13-1.73a.45.45,0,0,1,.38-.51,6.72,6.72,0,0,1,1.9,0,.44.44,0,0,1,.38.51.45.45,0,0,1-.5.38,5.77,5.77,0,0,0-1.66,0h-.06A.44.44,0,0,1,341.39,41.94Z"/><rect class="cls-13" x="267.96" y="39.91" width="32.79" height="26.15" rx="4.84"/><path class="cls-6" d="M284.35,44a9,9,0,1,0,9,9A9,9,0,0,0,284.35,44Zm.36,12.29V53.15h4.06a12.28,12.28,0,0,1-.48,3.15Zm2.54,3.58A9.89,9.89,0,0,0,288.81,57h2.74a8.24,8.24,0,0,1-5.38,4A8.44,8.44,0,0,0,287.25,59.88ZM288,57a8.72,8.72,0,0,1-1.34,2.39,7.54,7.54,0,0,1-2,1.82V57Zm-3.33-8.45V44.74l.32,0a11.25,11.25,0,0,1,2.82,3.81Zm3.93,0a12.14,12.14,0,0,0-1.21-2.21,12,12,0,0,0-1.14-1.4,8.31,8.31,0,0,1,5,3.61Zm-3.93,3.86V49.29h3.43a10.24,10.24,0,0,1,.62,3.14Zm4.78,0a11.23,11.23,0,0,0-.58-3.14h2.82a8.16,8.16,0,0,1,.85,3.14Zm3.11.72a8.11,8.11,0,0,1-.69,3.15H289a12.35,12.35,0,0,0,.45-3.15ZM279.75,56.3H276.8a8.12,8.12,0,0,1-.7-3.15h3.2A12.35,12.35,0,0,0,279.75,56.3Zm1.19-7.73a11,11,0,0,1,2.82-3.82H284v3.83Zm3.05.72v3.14h-4a10.55,10.55,0,0,1,.62-3.14Zm-6.6-.72a8.27,8.27,0,0,1,5.13-3.63,11.85,11.85,0,0,0-2.37,3.63Zm6.6,4.58V56.3H280.5a11.41,11.41,0,0,1-.48-3.15Zm-7.87-.72a8,8,0,0,1,.86-3.14h2.9a10.89,10.89,0,0,0-.58,3.14ZM280,57a10.14,10.14,0,0,0,1.56,2.86,8.9,8.9,0,0,0,1.11,1.18,8.33,8.33,0,0,1-5.48-4Zm4,0v4.16A8.59,8.59,0,0,1,280.74,57Z"/><rect class="cls-13" x="2.56" y="239.8" width="28.75" height="22.93" rx="4.84"/><path class="cls-6" d="M15.07,252.59a5.35,5.35,0,1,1,7.55-.3A5.36,5.36,0,0,1,15.07,252.59ZM21.12,246a3.58,3.58,0,1,0,.2,5.06A3.58,3.58,0,0,0,21.12,246Z"/><path class="cls-6" d="M9.16,259a.88.88,0,0,1-.05-1.25l5.91-6.4a.88.88,0,1,1,1.29,1.2l-5.9,6.4A.88.88,0,0,1,9.16,259Z"/><rect class="cls-13" x="416.9" y="183.51" width="28.75" height="22.93" rx="4.84"/><rect class="cls-6" x="423.06" y="189.47" width="13.28" height="11.02" rx="1.05"/><path class="cls-6" d="M441.19,192.18v5.59a.6.6,0,0,1-.86.55L437.56,197a.6.6,0,0,1-.34-.54v-3a.6.6,0,0,1,.34-.54l2.77-1.32A.6.6,0,0,1,441.19,192.18Z"/><path class="cls-2" d="M82.29,378.82c0,2.39-12.2,4.33-27.24,4.33s-27.25-1.94-27.25-4.33S40,374.5,55.05,374.5,82.29,376.43,82.29,378.82Z"/><path class="cls-19" d="M73.18,378.4V337.58c0-4.9-36.26-4.9-36.26,0V378.4C36.92,382.11,73.18,382.11,73.18,378.4Z"/><path class="cls-17" d="M73.18,341.84v2.36a71.87,71.87,0,0,1-18,2.1,71,71,0,0,1-18.26-2.18v-2.38A67.6,67.6,0,0,0,55.18,344,69.17,69.17,0,0,0,73.18,341.84Z"/><ellipse class="cls-16" cx="55.05" cy="337.15" rx="16.24" ry="2.11"/><path class="cls-5" d="M51.08,337.15h7.47c.43-2.19,4.81-25.56.84-45.58-4.16-21-16.86-33.51-24.74-24.53s2,26.5,9.41,39.18C51.1,318.2,51.1,335.3,51.08,337.15Z"/><path class="cls-3" d="M53.84,337.15h2c2-32.74-12.79-57.88-13-58.13a1,1,0,0,0-1.69,1A109.39,109.39,0,0,1,53.84,337.15Z"/><path class="cls-5" d="M85.61,272.73c-16.89,0-26.45,51.46-25.21,64.79h7.19c.59-3.39,3.39-12.41,16.08-32.93C89.61,295,103,272.73,85.61,272.73Z"/><path class="cls-3" d="M82.64,287a1,1,0,0,0-1.34.37c-.16.28-14.5,25.84-17.94,50.11h2c3.44-23.79,17.5-48.87,17.66-49.14A1,1,0,0,0,82.64,287Z"/><path class="cls-5" d="M50,337.52c.28-9.51-13-48.18-24.32-45.39-12.37,3.06,1.13,21.26,6.19,28,8.06,10.78,11.2,15.4,12.38,17.37Z"/><path class="cls-3" d="M47.82,337.52c-3.84-16-17.61-34.58-18.23-35.42A1,1,0,1,0,28,303.28c.15.2,13.84,18.68,17.77,34.24Z"/></g></g></g></svg>